<svg width="267" height="31" viewBox="0 0 267 31" fill="none" xmlns="http://www.w3.org/2000/svg">
<path d="M88.7184 0.136276L87.5481 5.7084H67.8741L66.9589 9.95311H85.5727L84.5475 14.8237H65.9337L65.0185 19.1794H84.9826L83.8123 24.7515H56.5317L61.7228 0.136276H88.7084H88.7184Z" fill="white"/>
<path d="M0.169922 24.7364H53.2758L55.9464 12.2193L0.169922 24.7364Z" fill="#E02328"/>
<path d="M0 22.9346L56.3566 10.2862L58.552 0H49.4302L31.6665 9.90264H21.5294L0 22.9346Z" fill="white"/>
<path d="M93.4394 19.8305C93.4094 19.992 93.4094 20.0879 93.4094 20.1838C93.4094 21.1478 94.3346 21.4053 98.1903 21.4053C101.536 21.4053 102.751 20.9863 102.751 19.7952C102.751 19.346 102.466 18.9927 101.986 18.8917C101.476 18.7958 100.681 18.7656 98.5404 18.7656H95.7999C90.5088 18.7656 88.8484 17.9933 88.8484 15.4849C88.8484 13.1379 90.0937 10.8818 91.844 10.049C93.1843 9.40296 95.8599 9.08499 100.231 9.08499C107.372 9.08499 109.063 9.6957 109.063 12.3051C109.063 12.6937 109.033 13.0117 108.903 13.5922H103.161V13.466C103.161 12.724 102.396 12.5322 99.4956 12.5322C95.9249 12.5322 94.7146 12.9209 94.7146 13.9808C94.7146 14.753 95.3198 14.9145 98.1253 14.9145H101.981C106.957 14.9145 108.582 15.6867 108.582 18.0337C108.582 19.2905 108.137 20.9611 107.562 21.9251C106.192 24.2115 103.832 24.8222 96.2099 24.8222C91.554 24.8222 90.1187 24.6304 88.8434 23.8885C87.9482 23.4039 87.4731 22.4399 87.4731 21.1832C87.4731 20.7996 87.5031 20.4766 87.6632 19.8305H93.4344H93.4394Z" fill="white"/>
<path d="M118.114 12.5928C119.515 9.66542 120.76 9.08499 125.796 9.08499C131.472 9.08499 133.608 10.2105 133.608 13.2035C133.608 15.4243 132.557 19.7699 131.632 21.4709C130.262 23.9137 127.776 24.8172 122.385 24.8172C119.55 24.8172 118.115 24.4941 117.059 23.6613C116.484 23.2121 116.229 22.662 116.229 21.6677L114.254 31H108.768L113.294 9.44334H118.78L118.109 12.5979L118.114 12.5928ZM117.894 14.8792C117.509 15.5858 116.999 17.8066 116.999 18.6747C116.999 20.2848 117.859 20.6381 121.91 20.6381C124.846 20.6381 125.641 20.4766 126.341 19.674C126.851 19.1289 127.041 18.6444 127.361 17.3877C127.586 16.4539 127.711 15.6817 127.711 15.2628C127.711 14.4906 127.391 13.8798 126.821 13.5922C126.311 13.3347 125.196 13.2035 123.251 13.2035C119.425 13.2035 118.66 13.4306 117.894 14.8792Z" fill="white"/>
<path d="M154.842 19.674C154.332 21.8948 153.442 23.0506 151.716 23.8229C150.186 24.4992 148.336 24.7263 144.32 24.7263C140.304 24.7263 138.068 24.4386 136.953 23.8582C135.518 23.086 134.883 21.8645 134.883 19.9971C134.883 18.9018 135.263 16.7769 135.808 15.0407C136.733 11.9518 138.294 10.3418 141.004 9.63514C142.089 9.31212 144.065 9.18593 147.155 9.18593C149.736 9.18593 151.841 9.31211 152.992 9.57457C154.842 9.95816 155.927 11.4067 155.927 13.4357C155.927 14.2735 155.862 14.854 155.512 16.3984L155.192 18.0388H140.654C140.494 18.811 140.429 19.1643 140.429 19.5832C140.429 21.062 141.289 21.3851 145.05 21.3851C148.206 21.3851 149.006 21.062 149.451 19.6791H154.837L154.842 19.674ZM150.476 15.071C150.541 14.6824 150.571 14.4603 150.571 14.2029C150.571 12.8502 149.776 12.5272 146.3 12.5272C144.035 12.5272 143.049 12.6887 142.344 13.2338C141.739 13.683 141.449 14.1978 141.294 15.0659H150.476V15.071Z" fill="white"/>
<path d="M159.848 9.43829H165.109L164.409 12.7846C165.399 11.1089 165.714 10.7253 166.449 10.2408C167.535 9.49886 169.32 9.08499 171.295 9.08499C174.741 9.08499 176.301 10.1802 176.301 12.5928C176.301 13.4306 176.141 14.4249 175.726 16.0653H170.595C170.72 15.5505 170.755 15.2931 170.755 14.97C170.755 13.9101 169.99 13.4256 168.235 13.4256C165.494 13.4256 164.279 14.5208 163.644 17.5441L162.179 24.4639H156.692L159.848 9.43829Z" fill="white"/>
<path d="M190.359 21.7939C189.149 24.2418 187.679 24.8172 182.838 24.8172C177.417 24.8172 175.886 24.1408 175.886 21.7283C175.886 20.0879 176.556 17.8974 177.352 16.9334C178.372 15.7423 179.807 15.1972 182.328 15.0357C183.028 14.97 184.783 14.9398 186.343 14.9398C189.944 14.9398 191.029 15.3284 191.254 16.8072L191.604 15.1669C191.764 14.5259 191.795 14.2029 191.795 14.0111C191.795 12.8553 191.059 12.5979 187.619 12.5979C184.178 12.5979 183.858 12.724 183.508 13.8193H178.022C178.532 11.8559 179.267 10.9222 181.017 10.0843C182.613 9.31212 184.363 9.08499 189.244 9.08499C193.23 9.08499 194.95 9.3424 196.195 10.0843C197.091 10.5992 197.566 11.6591 197.566 13.0471C197.566 13.434 197.459 14.1423 197.246 15.1719L195.27 24.4689H189.789L190.364 21.7989L190.359 21.7939ZM182.963 18.2861C182.067 18.5132 181.527 19.1895 181.527 20.0879C181.527 20.5725 181.782 20.9258 182.263 21.1176C182.898 21.3447 183.253 21.375 186.023 21.375C187.904 21.375 188.764 21.3094 189.404 21.1176C190.234 20.8904 190.804 20.1182 190.804 19.2854C190.804 18.2558 189.974 18.0287 186.278 18.0287C184.683 18.0287 183.598 18.1245 182.963 18.2861Z" fill="white"/>
<path d="M201.932 9.43829H207.288L206.553 12.9158C207.953 9.95311 209.708 9.08499 214.234 9.08499C216.5 9.08499 217.9 9.3424 219.05 9.95311C220.295 10.5992 221.061 11.9165 221.061 13.4256C221.061 14.2634 220.936 15.2577 220.681 16.4842L218.99 24.4639H213.504L215.129 16.7113C215.224 16.2621 215.289 15.8432 215.289 15.4546C215.289 13.8445 214.394 13.3953 211.304 13.3953C207.638 13.3953 206.393 14.3593 205.692 17.6754L204.257 24.4639H198.771L201.927 9.43829H201.932Z" fill="white"/>
<path d="M238.814 15.1972C238.844 15.071 238.844 14.9095 238.844 14.8741C238.844 13.5215 237.949 13.1682 234.413 13.1682C232.213 13.1682 231.223 13.36 230.458 13.9404C229.532 14.647 228.767 16.7416 228.767 18.5435C228.767 19.4116 229.182 20.1182 229.853 20.4109C230.298 20.6027 231.448 20.6986 233.103 20.6986C236.704 20.6986 237.694 20.2797 238.204 18.6091H243.845C242.76 23.4342 240.275 24.7869 232.463 24.7869C228.667 24.7869 226.182 24.4638 225.002 23.7875C223.661 23.0456 223.056 21.8544 223.056 19.9264C223.056 17.4482 224.106 13.8748 225.352 12.1083C226.912 9.85721 229.527 9.08499 235.459 9.08499C239.285 9.08499 241.93 9.47362 243.045 10.1802C244.13 10.8566 244.606 11.755 244.606 13.1076C244.606 13.7183 244.541 14.2685 244.381 15.1972H238.799H238.814Z" fill="white"/>
<path d="M265.915 19.674C265.405 21.8948 264.514 23.0506 262.789 23.8229C261.259 24.4992 259.408 24.7263 255.393 24.7263C251.377 24.7263 249.141 24.4386 248.026 23.8582C246.591 23.086 245.956 21.8645 245.956 19.9971C245.956 18.9018 246.336 16.7769 246.881 15.0407C247.806 11.9518 249.366 10.3418 252.077 9.63514C253.162 9.31212 255.137 9.18593 258.228 9.18593C260.809 9.18593 262.914 9.31211 264.064 9.57457C265.915 9.95816 267 11.4067 267 13.4357C267 14.2735 266.935 14.854 266.585 16.3984L266.265 18.0388H251.727C251.567 18.811 251.502 19.1643 251.502 19.5832C251.502 21.062 252.362 21.3851 256.123 21.3851C259.278 21.3851 260.078 21.062 260.524 19.6791H265.91L265.915 19.674ZM261.549 15.071C261.614 14.6824 261.644 14.4603 261.644 14.2029C261.644 12.8502 260.849 12.5272 257.373 12.5272C255.107 12.5272 254.122 12.6887 253.417 13.2338C252.812 13.683 252.522 14.1978 252.367 15.0659H261.549V15.071Z" fill="white"/>
</svg>
