<svg width="240" height="29" viewBox="0 0 240 29" fill="none" xmlns="http://www.w3.org/2000/svg">
<path d="M79.6242 0.127441L78.5739 5.34007H60.9165L60.0951 9.31093H76.801L75.8809 13.8673H59.175L58.3536 17.942H76.2714L75.2211 23.1546H50.7368L55.3958 0.127441H79.6152H79.6242Z" fill="white"/>
<path d="M0.152832 23.1404H47.8152L50.212 11.4309L0.152832 23.1404Z" fill="#E02328"/>
<path d="M0 21.4549L50.5799 9.6226L52.5503 0H44.3634L28.4206 9.26376H19.3226L0 21.4549Z" fill="white"/>
<path d="M83.8615 18.551C83.8346 18.7021 83.8346 18.7918 83.8346 18.8816C83.8346 19.7834 84.6649 20.0242 88.1255 20.0242C91.1282 20.0242 92.2189 19.6323 92.2189 18.518C92.2189 18.0978 91.9631 17.7673 91.5322 17.6728C91.0744 17.5831 90.3607 17.5548 88.4397 17.5548H85.98C81.2313 17.5548 79.7411 16.8324 79.7411 14.4858C79.7411 12.2902 80.8588 10.1797 82.4297 9.4006C83.6326 8.79624 86.0339 8.49878 89.9568 8.49878C96.3662 8.49878 97.8833 9.07009 97.8833 11.5112C97.8833 11.8747 97.8564 12.1722 97.7397 12.7152H92.587V12.5971C92.587 11.903 91.9002 11.7236 89.297 11.7236C86.0922 11.7236 85.006 12.0872 85.006 13.0787C85.006 13.8011 85.5491 13.9522 88.0671 13.9522H91.5277C95.9937 13.9522 97.4524 14.6746 97.4524 16.8702C97.4524 18.0458 97.0529 19.6087 96.5368 20.5105C95.3069 22.6494 93.1884 23.2207 86.3481 23.2207C82.1694 23.2207 80.8812 23.0413 79.7367 22.3472C78.9332 21.8939 78.5068 20.9921 78.5068 19.8164C78.5068 19.4576 78.5338 19.1554 78.6774 18.551H83.857H83.8615Z" fill="white"/>
<path d="M106.007 11.7803C107.264 9.04176 108.381 8.49878 112.901 8.49878C117.996 8.49878 119.912 9.5517 119.912 12.3516C119.912 14.4291 118.97 18.4944 118.139 20.0856C116.909 22.3708 114.679 23.216 109.84 23.216C107.295 23.216 106.007 22.9138 105.06 22.1347C104.544 21.7145 104.315 21.1999 104.315 20.2697L102.542 28.9999H97.6182L101.68 8.83402H106.604L106.003 11.785L106.007 11.7803ZM105.81 13.9192C105.464 14.5802 105.006 16.6577 105.006 17.4698C105.006 18.976 105.778 19.3065 109.414 19.3065C112.048 19.3065 112.762 19.1554 113.39 18.4047C113.848 17.8947 114.019 17.4415 114.306 16.2658C114.508 15.3923 114.62 14.6699 114.62 14.278C114.62 13.5556 114.333 12.9843 113.821 12.7152C113.363 12.4744 112.363 12.3516 110.617 12.3516C107.183 12.3516 106.496 12.5641 105.81 13.9192Z" fill="white"/>
<path d="M138.97 18.4045C138.513 20.482 137.714 21.5632 136.165 22.2856C134.792 22.9183 133.131 23.1308 129.527 23.1308C125.923 23.1308 123.916 22.8617 122.915 22.3187C121.627 21.5963 121.057 20.4537 121.057 18.7067C121.057 17.6821 121.398 15.6943 121.887 14.0701C122.718 11.1805 124.118 9.67427 126.551 9.01325C127.525 8.71106 129.298 8.59302 132.072 8.59302C134.388 8.59302 136.277 8.71106 137.31 8.95658C138.97 9.31542 139.944 10.6705 139.944 12.5686C139.944 13.3524 139.886 13.8954 139.572 15.3402L139.285 16.8747H126.237C126.093 17.5971 126.035 17.9276 126.035 18.3195C126.035 19.7029 126.807 20.0051 130.182 20.0051C133.014 20.0051 133.732 19.7029 134.132 18.4092H138.966L138.97 18.4045ZM135.052 14.0984C135.11 13.7348 135.137 13.5271 135.137 13.2863C135.137 12.0209 134.424 11.7187 131.304 11.7187C129.271 11.7187 128.387 11.8698 127.754 12.3797C127.211 12.8 126.95 13.2816 126.811 14.0937H135.052V14.0984Z" fill="white"/>
<path d="M143.463 8.82929H148.185L147.556 11.9597C148.445 10.3921 148.728 10.0333 149.388 9.58003C150.362 8.88595 151.964 8.49878 153.737 8.49878C156.83 8.49878 158.23 9.52336 158.23 11.7803C158.23 12.5641 158.086 13.4942 157.714 15.0287H153.109C153.221 14.5471 153.252 14.3063 153.252 14.0042C153.252 13.0126 152.566 12.5593 150.99 12.5593C148.53 12.5593 147.44 13.5839 146.87 16.4122L145.555 22.8855H140.631L143.463 8.82929Z" fill="white"/>
<path d="M170.847 20.3877C169.761 22.6777 168.441 23.216 164.096 23.216C159.231 23.216 157.857 22.5833 157.857 20.3264C157.857 18.7918 158.459 16.7427 159.173 15.8409C160.088 14.7266 161.376 14.2166 163.638 14.0655C164.267 14.0042 165.842 13.9758 167.243 13.9758C170.474 13.9758 171.448 14.3394 171.65 15.7228L171.964 14.1883C172.108 13.5887 172.135 13.2865 172.135 13.1071C172.135 12.0258 171.475 11.785 168.387 11.785C165.299 11.785 165.012 11.903 164.698 12.9276H159.774C160.232 11.0909 160.892 10.2174 162.463 9.43366C163.894 8.71126 165.465 8.49878 169.846 8.49878C173.423 8.49878 174.967 8.73959 176.085 9.43366C176.888 9.91526 177.315 10.9068 177.315 12.2052C177.315 12.5672 177.219 13.2298 177.027 14.193L175.254 22.8902H170.335L170.851 20.3925L170.847 20.3877ZM164.209 17.1062C163.405 17.3187 162.92 17.9514 162.92 18.7918C162.92 19.2451 163.149 19.5756 163.58 19.7551C164.15 19.9675 164.469 19.9958 166.955 19.9958C168.643 19.9958 169.415 19.9345 169.99 19.7551C170.735 19.5426 171.246 18.8202 171.246 18.0411C171.246 17.0779 170.501 16.8654 167.184 16.8654C165.753 16.8654 164.779 16.9551 164.209 17.1062Z" fill="white"/>
<path d="M181.233 8.82929H186.04L185.38 12.0825C186.637 9.3109 188.213 8.49878 192.275 8.49878C194.308 8.49878 195.565 8.73958 196.597 9.31089C197.715 9.91526 198.401 11.1476 198.401 12.5593C198.401 13.3431 198.289 14.2733 198.06 15.4206L196.543 22.8855H191.619L193.078 15.6331C193.163 15.2129 193.222 14.821 193.222 14.4574C193.222 12.9512 192.418 12.531 189.644 12.531C186.354 12.531 185.237 13.4328 184.608 16.5349L183.32 22.8855H178.396L181.229 8.82929H181.233Z" fill="white"/>
<path d="M214.335 14.2166C214.362 14.0986 214.362 13.9475 214.362 13.9144C214.362 12.6491 213.558 12.3186 210.385 12.3186C208.41 12.3186 207.521 12.498 206.835 13.041C206.004 13.702 205.318 15.6614 205.318 17.347C205.318 18.1592 205.69 18.8202 206.292 19.094C206.691 19.2735 207.723 19.3632 209.209 19.3632C212.441 19.3632 213.329 18.9713 213.787 17.4084H218.85C217.876 21.9223 215.645 23.1876 208.635 23.1876C205.228 23.1876 202.997 22.8855 201.938 22.2528C200.735 21.5587 200.192 20.4444 200.192 18.6408C200.192 16.3225 201.134 12.9796 202.252 11.327C203.652 9.22119 206 8.49878 211.323 8.49878C214.757 8.49878 217.131 8.86234 218.132 9.52336C219.106 10.1561 219.532 10.9965 219.532 12.2619C219.532 12.8332 219.474 13.3479 219.33 14.2166H214.321H214.335Z" fill="white"/>
<path d="M238.658 18.4045C238.2 20.482 237.401 21.5632 235.853 22.2856C234.479 22.9183 232.818 23.1308 229.214 23.1308C225.61 23.1308 223.604 22.8617 222.603 22.3187C221.315 21.5963 220.745 20.4537 220.745 18.7067C220.745 17.6821 221.086 15.6943 221.575 14.0701C222.405 11.1805 223.806 9.67427 226.238 9.01325C227.212 8.71106 228.985 8.59302 231.759 8.59302C234.075 8.59302 235.965 8.71106 236.997 8.95658C238.658 9.31542 239.632 10.6705 239.632 12.5686C239.632 13.3524 239.573 13.8954 239.259 15.3402L238.972 16.8747H225.924C225.781 17.5971 225.722 17.9276 225.722 18.3195C225.722 19.7029 226.494 20.0051 229.87 20.0051C232.702 20.0051 233.42 19.7029 233.819 18.4092H238.653L238.658 18.4045ZM234.739 14.0984C234.798 13.7348 234.825 13.5271 234.825 13.2863C234.825 12.0209 234.111 11.7187 230.992 11.7187C228.958 11.7187 228.074 11.8698 227.441 12.3797C226.898 12.8 226.638 13.2816 226.499 14.0937H234.739V14.0984Z" fill="white"/>
</svg>
